:SAMPLES-PER-SECOND 30
:FULLY-SPECIFIED
:DEGREES
16
root  73.8066 40.352 -13.2708 -25.0397 -87.9894 23.019
RightUpLeg  0.478813 -10.2289 -9.11827
RightLeg  4.43839 -4.59105 3.58224
RightFoot  -0.762982 -0.220215 2.32155
RightToes  1.16414e-010 0 -3.6325e-017
Spine  4.4306 0.688089 -2.91733
Spine1  2.38807 0.211667 2.41522
HEad  3.76717 7.18059 -2.27648
LeftShoulder1  1.62881 -2.84832 -19.003
LeftArm  -35.5745 16.8124 -2.15058
LeftForeArm  -2.11906 -12.5883 2.33883
LeftHand  -0.244104 0.0205437 5.32207
RightShoulder  1.03936 0.884027 17.0461
RightArm  -35.7478 -13.1984 11.3802
RightForeArm  -14.3755 17.3256 3.82441
RightHand  -3.81707 11.0219 -26.8539
LeftUpLeg  -0.462592 5.16154 2.99032
LeftLeg  4.94518 9.70957 -2.98086
LeftFoot  -2.18826 0.05618 -0.496258
LeftToes  -6.45774e-011 3.08606e-011 -5.1752e-012
17
root  73.8014 40.3489 -13.2662 -27.0403 -88.0253 24.8668
RightUpLeg  0.618808 -10.2507 -9.19315
RightLeg  4.50153 -4.45683 3.55284
RightFoot  -0.855916 -0.228642 2.42446
RightToes  1.16414e-010 0 -3.6325e-017
Spine  4.57453 0.809743 -3.38366
Spine1  2.24559 0.168406 3.1855
HEad  5.72479 11.307 -3.51458
LeftShoulder1  1.98276 -3.44675 -22.0929
LeftArm  -45.5654 18.376 -2.59545
LeftForeArm  2.99612 -17.8264 -0.312007
LeftHand  -0.244104 0.0205437 5.32207
RightShoulder  1.24432 1.31358 19.3477
RightArm  -35.2695 -14.1712 12.2114
RightForeArm  -14.1943 20.8551 5.04402
RightHand  -3.80776 11.0671 -26.7176
LeftUpLeg  -0.268269 5.18885 2.97255
LeftLeg  4.94226 9.72491 -3.01801
LeftFoot  -2.19242 0.0538986 -0.460804
LeftToes  -6.45774e-011 3.08606e-011 -5.1752e-012
18
root  73.8018 40.343 -13.2618 -26.8884 -87.9442 24.4318
RightUpLeg  0.872927 -10.2298 -9.24854
RightLeg  4.66183 -4.49989 3.46125
RightFoot  -1.02637 -0.234641 2.50815
RightToes  1.16414e-010 0 -3.6325e-017
Spine  3.84542 0.706396 -3.3604
Spine1  3.71848 0.0467716 3.18063
HEad  6.92233 15.466 -4.6244
LeftShoulder1  2.34743 -3.94307 -25.2568
LeftArm  -54.6778 19.3596 -3.6737
LeftForeArm  9.56193 -22.5917 -3.93418
LeftHand  -0.244104 0.0205437 5.32207
RightShoulder  1.60844 2.15559 22.1081
RightArm  -34.908 -14.4606 13.4364
RightForeArm  -11.6036 22.8662 5.44711
RightHand  -3.48343 10.4567 -25.4396
LeftUpLeg  -0.0150744 5.22062 2.96751
LeftLeg  5.05189 9.61691 -3.00038
LeftFoot  -2.2584 0.051945 -0.430443
LeftToes  -6.45774e-011 3.08606e-011 -5.1752e-012
19
root  73.805 40.3311 -13.257 -24.9162 -87.6861 22.1056
RightUpLeg  1.18938 -10.2304 -9.34068
RightLeg  4.92629 -4.72193 3.35601
RightFoot  -1.25912 -0.241194 2.63596
RightToes  1.16414e-010 0 -3.6325e-017
Spine  2.62463 0.461228 -2.95169
Spine1  6.13567 -0.086341 2.55177
HEad  7.59572 18.8057 -5.48716
LeftShoulder1  2.64988 -4.22252 -28.1279
LeftArm  -58.7099 19.204 -6.21159
LeftForeArm  10.5758 -26.8472 -5.26796
LeftHand  -0.244104 0.0205437 5.32207
RightShoulder  2.1065 3.27757 24.927
RightArm  -35.0956 -14.3051 15.1667
RightForeArm  -8 23.1861 5.34684
RightHand  -2.98307 9.28784 -23.6035
LeftUpLeg  0.234527 5.22966 2.93151
LeftLeg  5.25436 9.32833 -2.93136
LeftFoot  -2.36769 0.0483398 -0.374416
LeftToes  -6.45774e-011 3.08606e-011 -5.1752e-012
20
root  73.8165 40.317 -13.2582 -22.5307 -87.1656 19.3636
RightUpLeg  1.48087 -10.3457 -9.52427
RightLeg  5.3568 -5.0803 3.28394
RightFoot  -1.5786 -0.230771 2.57381
RightToes  1.16414e-010 0 -3.6325e-017
Spine  1.96806 0.293137 -2.71624
Spine1  7.8131 -0.161512 2.09228
HEad  8.47666 20.8403 -5.90733
LeftShoulder1  2.95371 -4.48754 -30.8287
LeftArm  -62.7953 18.2991 -9.80111
LeftForeArm  8.10737 -30.1538 -6.12722
LeftHand  -0.244104 0.0205437 5.32207
RightShoulder  2.56618 4.2451 27.0815
RightArm  -34.4986 -14.2221 17.5444
RightForeArm  -4.80639 22.1847 4.95807
RightHand  -2.36617 7.5286 -21.3461
LeftUpLeg  0.450653 5.21104 2.83113
LeftLeg  5.43332 8.79414 -2.87038
LeftFoot  -2.42341 0.0471975 -0.356663
LeftToes  -6.45774e-011 3.08606e-011 -5.1752e-012
21
root  73.8441 40.3033 -13.2733 -19.9698 -86.2764 16.3765
RightUpLeg  1.8451 -10.5854 -9.79525
RightLeg  5.94416 -5.63174 3.22056
RightFoot  -2.01991 -0.206297 2.36004
RightToes  1.16414e-010 0 -3.6325e-017
Spine  2.13613 0.232324 -2.6433
Spine1  8.52713 -0.128894 1.70447
HEad  9.96269 22.3014 -5.73907
LeftShoulder1  3.47501 -5.21575 -33.7128
LeftArm  -66.5853 16.8526 -13.2192
LeftForeArm  0.344522 -32.1549 -7.06599
LeftHand  -0.244104 0.0205437 5.32207
RightShoulder  2.90162 4.8719 28.6472
RightArm  -33.0643 -14.4255 20.5218
RightForeArm  -1.82472 20.4727 4.40715
RightHand  -1.58501 4.87257 -18.0189
LeftUpLeg  0.678028 5.19401 2.68985
LeftLeg  5.60476 7.9286 -2.82159
LeftFoot  -2.4294 0.049409 -0.391031
LeftToes  -6.45774e-011 3.08606e-011 -5.1752e-012
